<svg width="32" height="37" viewBox="0 0 32 37" fill="none" xmlns="http://www.w3.org/2000/svg">
<path d="M31.145 10.9926L17.1429 19.3052V35.2234C17.1429 36.1394 18.0993 36.7105 18.8607 36.2497L29.7293 29.6724C31.135 28.8218 32 27.2586 32 25.5688V11.5082C32 11.0523 31.5257 10.7664 31.145 10.9926V10.9926Z" fill="#005f73"/>
    <path d="M30.1564 7.81848L18.3007 0.643829C16.8786 -0.216731 15.1207 -0.216731 13.6986 0.643829L1.84357 7.81848C1.46357 8.0482 1.46571 8.62001 1.84786 8.84689L16 17.2491L30.1529 8.84689C30.535 8.62001 30.5371 8.04891 30.1564 7.81848V7.81848ZM0 11.5082V25.5688C0 27.2593 0.865 28.8218 2.27071 29.6724L13.1393 36.249C13.9014 36.7098 14.8571 36.1394 14.8571 35.2227V19.3052L0.855 10.9926C0.474286 10.7664 0 11.0523 0 11.5082Z" fill="#001219"/>
</svg>
